#!OML:ASF X:\für Bonn\!DataBase\2005_08_12_Daniel\c3d\Daniel.ASF
:FULLY-SPECIFIED
:DEGREES
456
root 14.9906 1.31176 1.02758 -724.619 -83.3448 -96.4009
lowerback 15.7977 -3.15378 2.00135
upperback 0.553964 -4.00273 -1.04008
thorax -8.48496 -2.07103 -1.32411
lowerneck -11.5137 0.316392 -10.5893
upperneck 5.81026 1.57014 5.26587
head 3.4732 0.792871 3.41983
rclavicle 1.31198e-013 -1.16873e-013
rhumerus -51.9661 -20.4761 -58.4346
rradius 11.5494
rwrist 77.7556
rhand -8.30829 -346.065
rfingers 7.12502
rthumb 17.6122 -375.288
lclavicle 1.31198e-013 -1.16873e-013
lhumerus -408.277 10.6653 -291.799
lradius 15.5603
lwrist -57.7845
lhand -5.73988 352.114
lfingers 7.12502
lthumb 20.0824 381.096
rfemur 190.936 -196.772 199.291
rtibia 16.8378
rfoot -11.1704 -33.7174
rtoes 26.9123
lfemur 0.176308 -20.9915 -16.94
ltibia 29.6717
lfoot -2.73689 30.3531
ltoes 13.4301
457
root 14.9891 1.30841 1.02807 -724.615 -83.327 -96.3853
lowerback 15.7951 -3.16809 1.9885
upperback 0.552612 -4.02359 -1.03068
thorax -8.4843 -2.08049 -1.302
lowerneck -11.5008 0.318111 -10.559
upperneck 5.7788 1.56931 5.23241
head 3.46211 0.791858 3.40397
rclavicle 5.1684e-015 4.95595e-014
rhumerus -51.9647 -20.5321 -58.3418
rradius 11.5435
rwrist 77.8296
rhand -8.25427 -346.022
rfingers 7.12502
rthumb 17.6642 -375.24
lclavicle 5.1684e-015 4.95595e-014
lhumerus -408.272 10.8116 -291.885
lradius 15.5345
lwrist -57.9277
lhand -5.72453 352.137
lfingers 7.12502
lthumb 20.0971 381.118
rfemur 190.861 -196.762 199.29
rtibia 16.904
rfoot -10.9733 -33.6206
rtoes 26.8826
lfemur 0.16031 -21.0486 -16.9527
ltibia 29.6394
lfoot -2.73925 30.2823
ltoes 13.7292
458
root 14.9882 1.30538 1.02775 -724.723 -83.3104 -96.2768
lowerback 15.8236 -3.17715 1.94359
upperback 0.552172 -4.04215 -1.0119
thorax -8.49692 -2.08739 -1.25077
lowerneck -11.503 0.320837 -10.541
upperneck 5.75707 1.57332 5.19638
head 3.45597 0.79273 3.38985
rclavicle 0 6.34869e-015
rhumerus -51.9634 -20.6254 -58.1857
rradius 11.5172
rwrist 77.9289
rhand -8.17779 -345.969
rfingers 7.12502
rthumb 17.7378 -375.18
lclavicle 0 6.34869e-015
lhumerus -408.265 10.8879 -291.892
lradius 15.5119
lwrist -57.9361
lhand -5.71634 352.146
lfingers 7.12502
lthumb 20.105 381.126
rfemur 190.818 -196.804 199.304
rtibia 16.9587
rfoot -10.7021 -33.5604
rtoes 26.8513
lfemur 0.155161 -21.1016 -16.984
ltibia 29.6099
lfoot -2.61313 30.2196
ltoes 13.9425
459
root 14.9882 1.3028 1.02797 -724.73 -83.3096 -96.2489
lowerback 15.8132 -3.18434 1.92491
upperback 0.557184 -4.05477 -1.00261
thorax -8.48414 -2.09263 -1.22804
lowerneck -11.5039 0.329535 -10.5301
upperneck 5.725 1.5838 5.19139
head 3.4456 0.798467 3.38677
rclavicle 9.14409e-015 2.44505e-014
rhumerus -51.9777 -20.7434 -58.0269
rradius 11.5166
rwrist 78.057
rhand -8.12146 -345.876
rfingers 7.12502
rthumb 17.792 -375.082
lclavicle 9.14409e-015 2.44505e-014
lhumerus -408.246 10.9195 -291.878
lradius 15.5095
lwrist -57.8591
lhand -5.68773 352.206
lfingers 7.12502
lthumb 20.1325 381.183
rfemur 190.768 -196.867 199.327
rtibia 16.9956
rfoot -10.5367 -33.5106
rtoes 26.8814
lfemur 0.14435 -21.2059 -17.0154
ltibia 29.5869
lfoot -2.66689 30.2144
ltoes 14.0989
460
root 14.9869 1.29943 1.02741 -724.739 -83.3033 -96.2375
lowerback 15.8285 -3.18617 1.91834
upperback 0.561514 -4.05894 -1.01003
thorax -8.48831 -2.09457 -1.23065
lowerneck -11.4921 0.320875 -10.4574
upperneck 5.7078 1.56377 5.14868
head 3.44097 0.788335 3.36035
rclavicle 1.10922e-013 -1.28862e-013
rhumerus -52.0234 -20.9393 -57.8316
rradius 11.4976
rwrist 78.2428
rhand -8.06901 -345.79
rfingers 7.12502
rthumb 17.8424 -374.992
lclavicle 1.10922e-013 -1.28862e-013
lhumerus -408.216 10.8391 -291.832
lradius 15.517
lwrist -57.7595
lhand -5.64847 352.229
lfingers 7.12502
lthumb 20.1703 381.202
rfemur 190.755 -197.008 199.384
rtibia 17.0197
rfoot -10.6357 -33.4512
rtoes 27.0355
lfemur 0.136263 -21.2822 -17.036
ltibia 29.5663
lfoot -2.67374 30.1789
ltoes 14.2116
461
root 14.9869 1.29563 1.02849 -724.704 -83.2938 -96.2527
lowerback 15.8292 -3.19884 1.91604
upperback 0.565252 -4.07587 -1.00175
thorax -8.48459 -2.1026 -1.21657
lowerneck -11.5081 0.331831 -10.4311
upperneck 5.68628 1.57863 5.11541
head 3.43629 0.795006 3.34651
rclavicle -8.82604e-014 5.17337e-014
rhumerus -52.0158 -21.0167 -57.7288
rradius 11.4827
rwrist 78.306
rhand -8.02744 -345.744
rfingers 7.12502
rthumb 17.8824 -374.942
lclavicle -8.82604e-014 5.17337e-014
lhumerus -408.212 11.0037 -291.941
lradius 15.5055
lwrist -57.9034
lhand -5.58681 352.208
lfingers 7.12502
lthumb 20.2295 381.175
rfemur 190.731 -197.121 199.425
rtibia 17.0267
rfoot -10.6328 -33.3946
rtoes 27.3
lfemur 0.107046 -21.4033 -17.0644
ltibia 29.555
lfoot -2.69832 30.1836
ltoes 14.2653
462
root 14.9873 1.29311 1.02865 -724.709 -83.3018 -96.2406
lowerback 15.847 -3.20137 1.88559
upperback 0.561994 -4.08291 -0.980334
thorax -8.49452 -2.10441 -1.17383
lowerneck -11.5086 0.335524 -10.4356
upperneck 5.66264 1.58496 5.1063
head 3.42869 0.797933 3.34448
rclavicle -1.07741e-013 1.01952e-013
rhumerus -51.9943 -21.0467 -57.6502
rradius 11.4721
rwrist 78.3193
rhand -7.97118 -345.707
rfingers 7.12502
rthumb 17.9366 -374.9
lclavicle -1.07741e-013 1.01952e-013
lhumerus -408.218 11.0762 -291.95
lradius 15.5056
lwrist -57.8959
lhand -5.55398 352.198
lfingers 7.12502
lthumb 20.2611 381.161
rfemur 190.726 -197.272 199.479
rtibia 17.027
rfoot -10.6271 -33.3843
rtoes 27.4177
lfemur 0.099296 -21.4861 -17.0983
ltibia 29.5455
lfoot -2.68223 30.1602
ltoes 14.2198
463
root 14.9865 1.28975 1.02867 -724.724 -83.3048 -96.2234
lowerback 15.8639 -3.20332 1.86604
upperback 0.565692 -4.08789 -0.965393
thorax -8.49762 -2.10581 -1.14489
lowerneck -11.4805 0.345349 -10.4186
upperneck 5.621 1.59549 5.06965
head 3.4111 0.80207 3.33018
rclavicle 6.0033e-014 -6.1002e-014
rhumerus -51.9152 -20.8654 -57.8171
rradius 11.4943
rwrist 78.0191
rhand -7.9677 -345.686
rfingers 7.12502
rthumb 17.9399 -374.879
lclavicle 6.0033e-014 -6.1002e-014
lhumerus -408.208 11.1714 -291.99
lradius 15.5029
lwrist -57.952
lhand -5.47832 352.218
lfingers 7.12502
lthumb 20.3338 381.174
rfemur 190.746 -197.512 199.565
rtibia 17.0184
rfoot -10.9037 -33.3605
rtoes 27.5904
lfemur 0.086129 -21.5817 -17.1348
ltibia 29.5426
lfoot -2.68098 30.1519
ltoes 14.2311
464
root 14.987 1.2868 1.02864 -724.83 -83.3103 -96.1061
lowerback 15.8749 -3.20439 1.82134
upperback 0.562483 -4.09588 -0.946787
thorax -8.50297 -2.10754 -1.09728
lowerneck -11.5029 0.352389 -10.3864
upperneck 5.63101 1.6071 5.006
head 3.41764 0.805132 3.30616
rclavicle -2.98177e-014 6.43565e-014
rhumerus -51.8635 -20.8212 -57.8118
rradius 11.4812
rwrist 77.8988
rhand -7.97332 -345.623
rfingers 7.12502
rthumb 17.9345 -374.817
lclavicle -2.98177e-014 6.43565e-014
lhumerus -408.205 11.2742 -292.027
lradius 15.483
lwrist -58.0155
lhand -5.47298 352.193
lfingers 7.12502
lthumb 20.3389 381.148
rfemur 190.747 -197.678 199.613
rtibia 17.0106
rfoot -10.9565 -33.3445
rtoes 27.703
lfemur 0.0688483 -21.6909 -17.1858
ltibia 29.5424
lfoot -2.66934 30.138
ltoes 14.106
465
root 14.987 1.2837 1.02888 -724.785 -83.3116 -96.1485
lowerback 15.8884 -3.21147 1.82014
upperback 0.566224 -4.10531 -0.942907
thorax -8.50642 -2.11205 -1.08963
lowerneck -11.4926 0.355261 -10.3646
upperneck 5.61399 1.60804 4.98826
head 3.41104 0.805399 3.2969
rclavicle -6.40087e-014 -1.04362e-015
rhumerus -51.856 -20.8861 -57.7437
rradius 11.4652
rwrist 77.9796
rhand -7.99162 -345.607
rfingers 7.12502
rthumb 17.9169 -374.802
lclavicle -6.40087e-014 -1.04362e-015
lhumerus -408.186 11.2475 -291.997
lradius 15.4927
lwrist -57.9087
lhand -5.39646 352.201
lfingers 7.12502
lthumb 20.4124 381.148
rfemur 190.774 -197.888 199.698
rtibia 16.9928
rfoot -11.27 -33.3235
rtoes 27.8289
lfemur 0.0417091 -21.7451 -17.2059
ltibia 29.5529
lfoot -2.56917 30.114
ltoes 14.0682
466
root 14.9867 1.28113 1.02928 -724.825 -83.3265 -96.0906
lowerback 15.8794 -3.21327 1.79944
upperback 0.574036 -4.11126 -0.935175
thorax -8.49106 -2.11404 -1.06903
lowerneck -11.5203 0.36434 -10.3512
upperneck 5.6064 1.62215 4.9715
head 3.41232 0.812104 3.29052
rclavicle -9.54166e-015 5.32122e-014
rhumerus -51.8361 -20.9326 -57.681
rradius 11.4532
rwrist 78.0049
rhand -8.03937 -345.551
rfingers 7.12502
rthumb 17.871 -374.75
lclavicle -9.54166e-015 5.32122e-014
lhumerus -408.16 11.3402 -292.042
lradius 15.4595
lwrist -57.9632
lhand -5.38873 352.226
lfingers 7.12502
lthumb 20.4199 381.172
rfemur 190.774 -198.098 199.757
rtibia 16.9791
rfoot -11.4813 -33.3356
rtoes 27.9298
lfemur 0.00674584 -21.8112 -17.2495
ltibia 29.566
lfoot -2.48067 30.1007
ltoes 13.9771
467
root 14.9861 1.27847 1.02888 -724.78 -83.3284 -96.1346
lowerback 15.9053 -3.2184 1.77079
upperback 0.565331 -4.12106 -0.910731
thorax -8.51142 -2.11716 -1.0228
lowerneck -11.4979 0.379707 -10.3394
upperneck 5.58408 1.64145 4.93248
head 3.40085 0.820002 3.27708
rclavicle -4.01545e-014 -4.14963e-015
rhumerus -51.7859 -20.8373 -57.7437
rradius 11.4518
rwrist 77.8616
rhand -8.06047 -345.58
rfingers 7.12502
rthumb 17.8507 -374.78
lclavicle -4.01545e-014 -4.14963e-015
lhumerus -408.191 11.4474 -292.1
lradius 15.4613
lwrist -58.0836
lhand -5.35888 352.176
lfingers 7.12502
lthumb 20.4486 381.119
rfemur 190.795 -198.314 199.847
rtibia 16.9743
rfoot -11.7689 -33.3333
rtoes 27.9461
lfemur -0.0303297 -21.8423 -17.2695
ltibia 29.581
lfoot -2.20537 30.0571
ltoes 13.6471
468
root 14.9862 1.27591 1.02889 -724.78 -83.3464 -96.1285
lowerback 15.8999 -3.21313 1.76159
upperback 0.582641 -4.1157 -0.903745
thorax -8.4881 -2.11419 -1.01224
lowerneck -11.5108 0.377034 -10.3399
upperneck 5.55345 1.64018 4.92034
head 3.39379 0.819362 3.27309
rclavicle 1.59028e-014 5.34234e-015
rhumerus -51.7302 -20.8004 -57.8051
rradius 11.4578
rwrist 77.7221
rhand -8.09636 -345.544
rfingers 7.12502
rthumb 17.8161 -374.748
lclavicle 1.59028e-014 5.34234e-015
lhumerus -408.159 11.5931 -292.183
lradius 15.4426
lwrist -58.2039
lhand -5.34585 352.174
lfingers 7.12502
lthumb 20.4611 381.115
rfemur 190.802 -198.465 199.893
rtibia 16.9662
rfoot -11.927 -33.3171
rtoes 27.9379
lfemur -0.0655225 -21.8323 -17.2967
ltibia 29.6011
lfoot -1.94795 30.0055
ltoes 13.447
469
root 14.9864 1.27437 1.02896 -724.777 -83.3616 -96.1204
lowerback 15.8951 -3.21501 1.74192
upperback 0.579549 -4.121 -0.893245
thorax -8.48675 -2.11578 -0.988865
lowerneck -11.4887 0.395834 -10.2988
upperneck 5.5348 1.66108 4.86375
head 3.38377 0.827761 3.24964
rclavicle -2.78299e-015 -4.29251e-014
rhumerus -51.714 -20.7764 -57.8033
rradius 11.4607
rwrist 77.6726
rhand -8.11184 -345.525
rfingers 7.12502
rthumb 17.8012 -374.73
lclavicle -2.78299e-015 -4.29251e-014
lhumerus -408.173 11.6391 -292.2
lradius 15.4496
lwrist -58.2505
lhand -5.31198 352.228
lfingers 7.12502
lthumb 20.4936 381.166
rfemur 190.796 -198.584 199.932
rtibia 16.9675
rfoot -11.973 -33.3426
rtoes 27.7707
lfemur -0.0989137 -21.8447 -17.3241
ltibia 29.6188
lfoot -1.73974 29.9612
ltoes 13.331
470
root 14.9856 1.27212 1.02947 -724.756 -83.3702 -96.1313
lowerback 15.8912 -3.21195 1.72855
upperback 0.587605 -4.11827 -0.875148
thorax -8.47329 -2.11366 -0.963088
lowerneck -11.4928 0.398766 -10.3277
upperneck 5.51 1.66949 4.86464
head 3.37598 0.831711 3.25478
rclavicle -5.64548e-014 5.21189e-014
rhumerus -51.6717 -20.7678 -57.7949
rradius 11.453
rwrist 77.629
rhand -8.11518 -345.5
rfingers 7.12502
rthumb 17.798 -374.706
lclavicle -5.64548e-014 5.21189e-014
lhumerus -408.153 11.689 -292.187
lradius 15.443
lwrist -58.2695
lhand -5.31755 352.232
lfingers 7.12502
lthumb 20.4883 381.171
rfemur 190.794 -198.712 199.97
rtibia 16.9661
rfoot -12.1811 -33.3228
rtoes 27.7474
lfemur -0.143766 -21.8716 -17.3449
ltibia 29.6406
lfoot -1.57993 29.9128
ltoes 13.2867
